<svg width="1920" height="1080" viewBox="0 0 1920 1080" fill="none" xmlns="http://www.w3.org/2000/svg">
  <rect width="1920" height="1080" fill="#F8FAFD"/>
  <rect y="84" width="1920" height="996" fill="url(#sky)"/>
  <path d="M0 648C320 560 623 526 910 545C1229 566 1579 638 1920 721V1080H0V648Z" fill="#E8EFF7"/>
  <path d="M0 852C421 760 749 720 984 735C1219 750 1519 816 1920 925V1080H0V852Z" fill="#DDE8F3"/>
  <path d="M366 1080C569 911 763 795 944 735C1117 791 1309 906 1525 1080H366Z" fill="url(#road)"/>
  <path d="M944 735L891 1080M944 735L997 1080" stroke="#F7FAFD" stroke-width="5" opacity=".85"/>
  <path d="M0 593C293 516 614 491 963 522C1275 550 1594 617 1920 708" stroke="#D3DFEA" stroke-width="2"/>
  <g opacity=".44">
    <path d="M136 612H428M1454 620H1786" stroke="#C2D0DE" stroke-width="8" stroke-linecap="round"/>
    <path d="M176 641H499M1394 648H1846" stroke="#EFF4F9" stroke-width="5" stroke-linecap="round"/>
  </g>
  <ellipse cx="960" cy="922" rx="640" ry="88" fill="url(#glow)" opacity=".68"/>
  <rect y="83" width="1920" height="1" fill="#DDE3EA"/>
  <defs>
    <linearGradient id="sky" x1="960" y1="84" x2="960" y2="1080">
      <stop stop-color="#FFFFFF"/>
      <stop offset=".53" stop-color="#F4F8FC"/>
      <stop offset="1" stop-color="#E2EBF4"/>
    </linearGradient>
    <linearGradient id="road" x1="944" y1="735" x2="944" y2="1080">
      <stop stop-color="#ECF2F8"/>
      <stop offset="1" stop-color="#CDD9E6"/>
    </linearGradient>
    <radialGradient id="glow" cx="0" cy="0" r="1" gradientTransform="translate(960 922) rotate(90) scale(88 640)">
      <stop stop-color="#D4E0EA"/>
      <stop offset="1" stop-color="#D4E0EA" stop-opacity="0"/>
    </radialGradient>
  </defs>
</svg>
