<svg width="1920" height="1080" viewBox="0 0 1920 1080" fill="none" xmlns="http://www.w3.org/2000/svg">
  <rect width="1920" height="1080" fill="#F8FAFD"/>
  <rect y="84" width="1920" height="996" fill="url(#base)"/>
  <path d="M0 591C274 520 540 491 799 505C1078 520 1321 580 1581 603C1691 613 1804 610 1920 593V1080H0V591Z" fill="#EDF4FA"/>
  <path d="M0 717C349 645 660 623 933 652C1203 681 1497 757 1920 810V1080H0V717Z" fill="#E1EBF4"/>
  <path d="M0 697C302 638 583 626 842 660C1094 693 1359 751 1644 773C1740 781 1832 779 1920 768" stroke="#C8D8E8" stroke-width="4" opacity=".65"/>
  <path d="M0 757C317 701 597 690 841 723C1118 760 1384 824 1687 839C1764 843 1842 841 1920 832" stroke="#F8FBFE" stroke-width="8" opacity=".9"/>
  <g opacity=".4">
    <path d="M156 596C235 552 319 552 398 596M1466 584C1545 540 1629 540 1708 584" stroke="#BFD0E0" stroke-width="8" stroke-linecap="round"/>
    <circle cx="1504" cy="414" r="68" fill="#E6EEF6"/>
  </g>
  <ellipse cx="960" cy="928" rx="650" ry="88" fill="url(#glow)" opacity=".7"/>
  <rect y="83" width="1920" height="1" fill="#DDE3EA"/>
  <defs>
    <linearGradient id="base" x1="960" y1="84" x2="960" y2="1080">
      <stop stop-color="#FFFFFF"/>
      <stop offset=".5" stop-color="#F6FAFD"/>
      <stop offset="1" stop-color="#E0EAF4"/>
    </linearGradient>
    <radialGradient id="glow" cx="0" cy="0" r="1" gradientTransform="translate(960 928) rotate(90) scale(88 650)">
      <stop stop-color="#D1DEE9"/>
      <stop offset="1" stop-color="#D1DEE9" stop-opacity="0"/>
    </radialGradient>
  </defs>
</svg>
